<svg width="161" height="161" viewBox="0 0 161 161" fill="none" xmlns="http://www.w3.org/2000/svg">
<rect x="0.5" y="0.5" width="160" height="47" rx="15.5" fill="#18181B"/>
<rect x="0.5" y="0.5" width="160" height="47" rx="15.5" stroke="#27272A"/>
<rect x="4.5" y="4.5" width="39" height="39" rx="11.5" fill="#27272A"/>
<rect x="4.5" y="4.5" width="39" height="39" rx="11.5" stroke="#3F3F46"/>
<g clip-path="url(#clip0_11_78)">
<path d="M31.5 15H16.5C16.1022 15 15.7206 15.158 15.4393 15.4393C15.158 15.7206 15 16.1022 15 16.5V31.5C15 31.8978 15.158 32.2794 15.4393 32.5607C15.7206 32.842 16.1022 33 16.5 33H31.5C31.8978 33 32.2794 32.842 32.5607 32.5607C32.842 32.2794 33 31.8978 33 31.5V16.5C33 16.1022 32.842 15.7206 32.5607 15.4393C32.2794 15.158 31.8978 15 31.5 15ZM29.25 16.5H31.5V20.25H29.25V16.5ZM29.25 21.75H31.5V26.25H29.25V21.75ZM25.6875 28.4766C25.5921 28.5011 25.4928 28.5066 25.3952 28.4927C25.2977 28.4788 25.2039 28.4459 25.1191 28.3957C25.0343 28.3456 24.9602 28.2792 24.901 28.2004C24.8419 28.1216 24.7989 28.032 24.7744 27.9366C24.5278 26.9747 23.55 26.2491 22.5009 26.2491C21.4519 26.2491 20.475 26.9747 20.2275 27.9366C20.2029 28.032 20.1597 28.1216 20.1004 28.2003C20.0412 28.2791 19.967 28.3453 19.8821 28.3954C19.7972 28.4455 19.7033 28.4783 19.6058 28.4921C19.5082 28.5058 19.4089 28.5002 19.3134 28.4756C19.218 28.451 19.1284 28.4078 19.0497 28.3486C18.9709 28.2893 18.9047 28.2151 18.8546 28.1302C18.8045 28.0454 18.7717 27.9515 18.7579 27.8539C18.7442 27.7563 18.7498 27.657 18.7744 27.5616C19.0178 26.6557 19.5931 25.8746 20.3859 25.3734C19.9646 24.9546 19.6771 24.4201 19.5599 23.8377C19.4427 23.2552 19.5011 22.6511 19.7276 22.1019C19.9541 21.5527 20.3386 21.0831 20.8324 20.7526C21.3261 20.4222 21.9068 20.2458 22.5009 20.2458C23.095 20.2458 23.6758 20.4222 24.1695 20.7526C24.6632 21.0831 25.0477 21.5527 25.2743 22.1019C25.5008 22.6511 25.5592 23.2552 25.442 23.8377C25.3248 24.4201 25.0373 24.9546 24.6159 25.3734C25.4092 25.8744 25.9843 26.6561 26.2266 27.5625C26.2512 27.6579 26.2569 27.7573 26.2431 27.8548C26.2294 27.9524 26.1965 28.0464 26.1465 28.1313C26.0964 28.2161 26.0301 28.2903 25.9514 28.3496C25.8726 28.4088 25.7829 28.452 25.6875 28.4766ZM31.5 31.5H29.25V27.75H31.5V31.5ZM24 23.25C24 23.5467 23.912 23.8367 23.7472 24.0834C23.5824 24.33 23.3481 24.5223 23.074 24.6358C22.7999 24.7494 22.4983 24.7791 22.2074 24.7212C21.9164 24.6633 21.6491 24.5204 21.4393 24.3107C21.2296 24.1009 21.0867 23.8336 21.0288 23.5426C20.9709 23.2517 21.0006 22.9501 21.1142 22.676C21.2277 22.4019 21.42 22.1676 21.6666 22.0028C21.9133 21.838 22.2033 21.75 22.5 21.75C22.8978 21.75 23.2794 21.908 23.5607 22.1893C23.842 22.4706 24 22.8522 24 23.25Z" fill="white"/>
</g>
<path d="M58.9425 15.6811H57.6143C57.5765 15.4633 57.5066 15.2704 57.4048 15.1023C57.303 14.9318 57.1764 14.7874 57.0249 14.669C56.8733 14.5507 56.7005 14.4619 56.5064 14.4027C56.3146 14.3411 56.1075 14.3104 55.8849 14.3104C55.4896 14.3104 55.1392 14.4098 54.8338 14.6087C54.5284 14.8052 54.2893 15.094 54.1165 15.4751C53.9437 15.8539 53.8572 16.3168 53.8572 16.8636C53.8572 17.42 53.9437 17.8887 54.1165 18.2699C54.2917 18.6487 54.5308 18.9351 54.8338 19.1293C55.1392 19.321 55.4884 19.4169 55.8814 19.4169C56.0992 19.4169 56.3028 19.3885 56.4922 19.3317C56.6839 19.2725 56.8556 19.1861 57.0071 19.0724C57.161 18.9588 57.29 18.8191 57.3942 18.6534C57.5007 18.4877 57.5741 18.2983 57.6143 18.0852L58.9425 18.0923C58.8928 18.438 58.785 18.7623 58.6193 19.0653C58.456 19.3684 58.2417 19.6359 57.9766 19.8679C57.7114 20.0975 57.4013 20.2775 57.0462 20.4077C56.6911 20.5355 56.2969 20.5994 55.8636 20.5994C55.2244 20.5994 54.6539 20.4515 54.152 20.1555C53.6501 19.8596 53.2547 19.4323 52.9659 18.8736C52.6771 18.3149 52.5327 17.6449 52.5327 16.8636C52.5327 16.08 52.6783 15.41 52.9695 14.8537C53.2607 14.295 53.6572 13.8677 54.1591 13.5717C54.661 13.2758 55.2292 13.1278 55.8636 13.1278C56.2685 13.1278 56.6449 13.1847 56.9929 13.2983C57.3409 13.4119 57.651 13.5788 57.9233 13.799C58.1955 14.0168 58.4193 14.2843 58.5945 14.6016C58.772 14.9164 58.888 15.2763 58.9425 15.6811ZM61.6618 20.6101C61.3161 20.6101 61.0048 20.5485 60.7278 20.4254C60.4532 20.3 60.2354 20.1153 60.0744 19.8714C59.9158 19.6276 59.8365 19.3269 59.8365 18.9695C59.8365 18.6617 59.8933 18.4072 60.0069 18.206C60.1206 18.0047 60.2756 17.8438 60.4721 17.723C60.6686 17.6023 60.89 17.5111 61.1362 17.4496C61.3848 17.3857 61.6416 17.3395 61.9068 17.3111C62.2264 17.2779 62.4856 17.2483 62.6845 17.2223C62.8833 17.1939 63.0278 17.1513 63.1177 17.0945C63.21 17.0353 63.2562 16.9441 63.2562 16.821V16.7997C63.2562 16.5322 63.1769 16.325 63.0183 16.1783C62.8597 16.0315 62.6312 15.9581 62.3329 15.9581C62.0181 15.9581 61.7683 16.0268 61.5836 16.1641C61.4013 16.3014 61.2782 16.4635 61.2143 16.6506L60.014 16.4801C60.1087 16.1487 60.265 15.8717 60.4828 15.6491C60.7006 15.4242 60.9669 15.2562 61.2818 15.1449C61.5967 15.0313 61.9447 14.9744 62.3258 14.9744C62.5886 14.9744 62.8502 15.0052 63.1106 15.0668C63.371 15.1283 63.609 15.2301 63.8244 15.3722C64.0398 15.5118 64.2127 15.7024 64.3429 15.9439C64.4754 16.1854 64.5417 16.4872 64.5417 16.8494V20.5H63.3059V19.7507H63.2633C63.1852 19.9022 63.0751 20.0443 62.9331 20.1768C62.7934 20.3071 62.617 20.4124 62.4039 20.4929C62.1932 20.571 61.9458 20.6101 61.6618 20.6101ZM61.9956 19.6655C62.2536 19.6655 62.4773 19.6146 62.6667 19.5128C62.8561 19.4086 63.0017 19.2713 63.1035 19.1009C63.2077 18.9304 63.2598 18.7446 63.2598 18.5433V17.9006C63.2195 17.9337 63.1509 17.9645 63.0538 17.9929C62.9591 18.0213 62.8526 18.0462 62.7342 18.0675C62.6158 18.0888 62.4986 18.1077 62.3826 18.1243C62.2666 18.1409 62.166 18.1551 62.0808 18.1669C61.889 18.1929 61.7174 18.2356 61.5659 18.2947C61.4144 18.3539 61.2948 18.4368 61.2072 18.5433C61.1196 18.6475 61.0758 18.7824 61.0758 18.9482C61.0758 19.1849 61.1622 19.3636 61.335 19.4844C61.5079 19.6051 61.728 19.6655 61.9956 19.6655ZM67.1199 13.2273V20.5H65.8343V13.2273H67.1199ZM69.7273 13.2273V20.5H68.4418V13.2273H69.7273ZM79.8116 15.6811H78.4835C78.4456 15.4633 78.3758 15.2704 78.274 15.1023C78.1722 14.9318 78.0455 14.7874 77.894 14.669C77.7425 14.5507 77.5697 14.4619 77.3755 14.4027C77.1838 14.3411 76.9766 14.3104 76.7541 14.3104C76.3587 14.3104 76.0083 14.4098 75.7029 14.6087C75.3975 14.8052 75.1584 15.094 74.9856 15.4751C74.8128 15.8539 74.7264 16.3168 74.7264 16.8636C74.7264 17.42 74.8128 17.8887 74.9856 18.2699C75.1608 18.6487 75.3999 18.9351 75.7029 19.1293C76.0083 19.321 76.3575 19.4169 76.7505 19.4169C76.9683 19.4169 77.1719 19.3885 77.3613 19.3317C77.5531 19.2725 77.7247 19.1861 77.8762 19.0724C78.0301 18.9588 78.1592 18.8191 78.2633 18.6534C78.3699 18.4877 78.4432 18.2983 78.4835 18.0852L79.8116 18.0923C79.7619 18.438 79.6542 18.7623 79.4885 19.0653C79.3251 19.3684 79.1109 19.6359 78.8457 19.8679C78.5806 20.0975 78.2704 20.2775 77.9153 20.4077C77.5602 20.5355 77.166 20.5994 76.7328 20.5994C76.0936 20.5994 75.523 20.4515 75.0211 20.1555C74.5192 19.8596 74.1239 19.4323 73.835 18.8736C73.5462 18.3149 73.4018 17.6449 73.4018 16.8636C73.4018 16.08 73.5474 15.41 73.8386 14.8537C74.1298 14.295 74.5263 13.8677 75.0282 13.5717C75.5301 13.2758 76.0983 13.1278 76.7328 13.1278C77.1376 13.1278 77.514 13.1847 77.862 13.2983C78.21 13.4119 78.5202 13.5788 78.7924 13.799C79.0647 14.0168 79.2884 14.2843 79.4636 14.6016C79.6412 14.9164 79.7572 15.2763 79.8116 15.6811ZM83.3406 20.6065C82.8079 20.6065 82.3462 20.4893 81.9556 20.255C81.565 20.0206 81.262 19.6927 81.0465 19.2713C80.8335 18.8499 80.7269 18.3575 80.7269 17.794C80.7269 17.2306 80.8335 16.737 81.0465 16.3132C81.262 15.8894 81.565 15.5604 81.9556 15.326C82.3462 15.0916 82.8079 14.9744 83.3406 14.9744C83.8732 14.9744 84.3349 15.0916 84.7255 15.326C85.1161 15.5604 85.418 15.8894 85.631 16.3132C85.8465 16.737 85.9542 17.2306 85.9542 17.794C85.9542 18.3575 85.8465 18.8499 85.631 19.2713C85.418 19.6927 85.1161 20.0206 84.7255 20.255C84.3349 20.4893 83.8732 20.6065 83.3406 20.6065ZM83.3477 19.5767C83.6365 19.5767 83.878 19.4974 84.0721 19.3388C84.2662 19.1778 84.4106 18.9624 84.5053 18.6925C84.6024 18.4226 84.6509 18.1219 84.6509 17.7905C84.6509 17.4567 84.6024 17.1548 84.5053 16.8849C84.4106 16.6127 84.2662 16.3961 84.0721 16.2351C83.878 16.0741 83.6365 15.9936 83.3477 15.9936C83.0517 15.9936 82.8055 16.0741 82.609 16.2351C82.4149 16.3961 82.2693 16.6127 82.1722 16.8849C82.0775 17.1548 82.0302 17.4567 82.0302 17.7905C82.0302 18.1219 82.0775 18.4226 82.1722 18.6925C82.2693 18.9624 82.4149 19.1778 82.609 19.3388C82.8055 19.4974 83.0517 19.5767 83.3477 19.5767ZM88.3308 17.304V20.5H87.0453V15.0455H88.274V15.9723H88.3379C88.4634 15.6669 88.6634 15.4242 88.938 15.2443C89.215 15.0644 89.5571 14.9744 89.9643 14.9744C90.3407 14.9744 90.6686 15.0549 90.948 15.2159C91.2297 15.3769 91.4475 15.6101 91.6014 15.9155C91.7576 16.2209 91.8346 16.5914 91.8322 17.027V20.5H90.5467V17.2259C90.5467 16.8613 90.452 16.576 90.2626 16.37C90.0756 16.1641 89.8163 16.0611 89.4849 16.0611C89.26 16.0611 89.06 16.1108 88.8848 16.2102C88.7119 16.3073 88.5758 16.4482 88.4764 16.6328C88.3793 16.8175 88.3308 17.0412 88.3308 17.304ZM95.8627 15.0455V16.0398H92.7271V15.0455H95.8627ZM93.5012 13.7386H94.7868V18.8594C94.7868 19.0322 94.8128 19.1648 94.8649 19.2571C94.9193 19.3471 94.9904 19.4086 95.0779 19.4418C95.1655 19.4749 95.2626 19.4915 95.3691 19.4915C95.4496 19.4915 95.523 19.4856 95.5893 19.4737C95.658 19.4619 95.71 19.4512 95.7456 19.4418L95.9622 20.4467C95.8935 20.4704 95.7953 20.4964 95.6674 20.5249C95.542 20.5533 95.3881 20.5698 95.2058 20.5746C94.8838 20.584 94.5938 20.5355 94.3358 20.429C94.0777 20.3201 93.8729 20.152 93.7214 19.9247C93.5723 19.6974 93.4989 19.4134 93.5012 19.0724V13.7386ZM98.5075 20.6101C98.1618 20.6101 97.8505 20.5485 97.5735 20.4254C97.2989 20.3 97.0811 20.1153 96.9201 19.8714C96.7615 19.6276 96.6822 19.3269 96.6822 18.9695C96.6822 18.6617 96.739 18.4072 96.8526 18.206C96.9663 18.0047 97.1213 17.8438 97.3178 17.723C97.5143 17.6023 97.7357 17.5111 97.9819 17.4496C98.2305 17.3857 98.4873 17.3395 98.7525 17.3111C99.0721 17.2779 99.3313 17.2483 99.5302 17.2223C99.729 17.1939 99.8735 17.1513 99.9634 17.0945C100.056 17.0353 100.102 16.9441 100.102 16.821V16.7997C100.102 16.5322 100.023 16.325 99.864 16.1783C99.7054 16.0315 99.4769 15.9581 99.1786 15.9581C98.8638 15.9581 98.614 16.0268 98.4293 16.1641C98.247 16.3014 98.1239 16.4635 98.06 16.6506L96.8597 16.4801C96.9544 16.1487 97.1107 15.8717 97.3285 15.6491C97.5463 15.4242 97.8126 15.2562 98.1275 15.1449C98.4424 15.0313 98.7904 14.9744 99.1715 14.9744C99.4343 14.9744 99.6959 15.0052 99.9563 15.0668C100.217 15.1283 100.455 15.2301 100.67 15.3722C100.886 15.5118 101.058 15.7024 101.189 15.9439C101.321 16.1854 101.387 16.4872 101.387 16.8494V20.5H100.152V19.7507H100.109C100.031 19.9022 99.9208 20.0443 99.7788 20.1768C99.6391 20.3071 99.4627 20.4124 99.2496 20.4929C99.0389 20.571 98.7915 20.6101 98.5075 20.6101ZM98.8413 19.6655C99.0993 19.6655 99.323 19.6146 99.5124 19.5128C99.7018 19.4086 99.8474 19.2713 99.9492 19.1009C100.053 18.9304 100.105 18.7446 100.105 18.5433V17.9006C100.065 17.9337 99.9966 17.9645 99.8995 17.9929C99.8048 18.0213 99.6983 18.0462 99.5799 18.0675C99.4615 18.0888 99.3443 18.1077 99.2283 18.1243C99.1123 18.1409 99.0117 18.1551 98.9265 18.1669C98.7347 18.1929 98.5631 18.2356 98.4116 18.2947C98.2601 18.3539 98.1405 18.4368 98.0529 18.5433C97.9653 18.6475 97.9215 18.7824 97.9215 18.9482C97.9215 19.1849 98.0079 19.3636 98.1808 19.4844C98.3536 19.6051 98.5737 19.6655 98.8413 19.6655ZM105.059 20.6065C104.515 20.6065 104.047 20.487 103.657 20.2479C103.268 20.0088 102.969 19.6785 102.758 19.2571C102.55 18.8333 102.446 18.3456 102.446 17.794C102.446 17.2401 102.552 16.7512 102.765 16.3274C102.978 15.9013 103.279 15.5698 103.667 15.3331C104.058 15.094 104.52 14.9744 105.052 14.9744C105.495 14.9744 105.887 15.0561 106.228 15.2195C106.571 15.3804 106.844 15.6089 107.048 15.9048C107.252 16.1984 107.368 16.5417 107.396 16.9347H106.167C106.118 16.6719 105.999 16.4529 105.812 16.2777C105.627 16.1001 105.38 16.0114 105.07 16.0114C104.807 16.0114 104.576 16.0824 104.377 16.2244C104.179 16.3641 104.024 16.5653 103.912 16.8281C103.803 17.0909 103.749 17.4058 103.749 17.7727C103.749 18.1444 103.803 18.464 103.912 18.7315C104.021 18.9967 104.174 19.2015 104.37 19.3459C104.569 19.4879 104.802 19.5589 105.07 19.5589C105.259 19.5589 105.429 19.5234 105.578 19.4524C105.729 19.379 105.856 19.2737 105.958 19.1364C106.06 18.9991 106.129 18.8321 106.167 18.6357H107.396C107.365 19.0215 107.252 19.3636 107.055 19.6619C106.859 19.9579 106.591 20.1899 106.252 20.358C105.914 20.5237 105.516 20.6065 105.059 20.6065ZM111.175 15.0455V16.0398H108.04V15.0455H111.175ZM108.814 13.7386H110.099V18.8594C110.099 19.0322 110.125 19.1648 110.177 19.2571C110.232 19.3471 110.303 19.4086 110.39 19.4418C110.478 19.4749 110.575 19.4915 110.682 19.4915C110.762 19.4915 110.836 19.4856 110.902 19.4737C110.97 19.4619 111.023 19.4512 111.058 19.4418L111.275 20.4467C111.206 20.4704 111.108 20.4964 110.98 20.5249C110.854 20.5533 110.701 20.5698 110.518 20.5746C110.196 20.584 109.906 20.5355 109.648 20.429C109.39 20.3201 109.185 20.152 109.034 19.9247C108.885 19.6974 108.811 19.4134 108.814 19.0724V13.7386ZM116.483 16.4872L115.311 16.6151C115.278 16.4967 115.22 16.3854 115.137 16.2813C115.057 16.1771 114.948 16.093 114.811 16.0291C114.673 15.9652 114.505 15.9332 114.306 15.9332C114.039 15.9332 113.814 15.9912 113.632 16.1072C113.452 16.2232 113.363 16.3736 113.365 16.5582C113.363 16.7169 113.421 16.8459 113.539 16.9453C113.66 17.0447 113.859 17.1264 114.136 17.1903L115.066 17.3892C115.583 17.5005 115.966 17.6768 116.217 17.9183C116.47 18.1598 116.598 18.4759 116.6 18.8665C116.598 19.2098 116.498 19.5128 116.299 19.7756C116.102 20.036 115.829 20.2396 115.478 20.3864C115.128 20.5331 114.725 20.6065 114.271 20.6065C113.603 20.6065 113.066 20.4669 112.659 20.1875C112.252 19.9058 112.009 19.514 111.931 19.0121L113.184 18.8913C113.241 19.1375 113.362 19.3234 113.547 19.4489C113.731 19.5743 113.971 19.6371 114.267 19.6371C114.573 19.6371 114.818 19.5743 115.002 19.4489C115.19 19.3234 115.283 19.1683 115.283 18.9837C115.283 18.8274 115.223 18.6984 115.102 18.5966C114.984 18.4948 114.799 18.4167 114.548 18.3622L113.618 18.1669C113.094 18.058 112.707 17.8745 112.456 17.6165C112.205 17.3561 112.081 17.027 112.083 16.6293C112.081 16.2931 112.172 16.0019 112.357 15.7557C112.544 15.5071 112.803 15.3153 113.135 15.1804C113.468 15.0431 113.853 14.9744 114.289 14.9744C114.928 14.9744 115.431 15.1106 115.798 15.3828C116.167 15.6551 116.396 16.0232 116.483 16.4872ZM121.132 20.5L119.725 20.5L122.286 13.2273H123.912L126.476 20.5H125.07L123.127 14.7188H123.071L121.132 20.5ZM121.178 17.6484H125.013V18.7067H121.178V17.6484ZM127.434 20.5V13.2273L130.161 13.2273C130.72 13.2273 131.189 13.3314 131.568 13.5398C131.949 13.7481 132.236 14.0346 132.431 14.3991C132.627 14.7614 132.725 15.1733 132.725 15.6349C132.725 16.1013 132.627 16.5156 132.431 16.8778C132.234 17.2401 131.944 17.5253 131.561 17.7337C131.177 17.9396 130.705 18.0426 130.144 18.0426L128.336 18.0426V16.9595L129.966 16.9595C130.293 16.9595 130.56 16.9027 130.769 16.7891C130.977 16.6754 131.131 16.5192 131.23 16.3203C131.332 16.1214 131.383 15.893 131.383 15.6349C131.383 15.3769 131.332 15.1496 131.23 14.9531C131.131 14.7566 130.976 14.6039 130.765 14.495C130.557 14.3838 130.288 14.3281 129.959 14.3281L128.752 14.3281V20.5L127.434 20.5ZM135.187 13.2273V20.5H133.87V13.2273L135.187 13.2273Z" fill="#C4E8D0"/>
<path d="M59.0227 28.5C58.929 28.2131 58.8054 27.956 58.652 27.7287C58.5014 27.4986 58.321 27.3026 58.1108 27.1406C57.9034 26.9787 57.6676 26.8551 57.4034 26.7699C57.1392 26.6847 56.8494 26.642 56.5341 26.642C56.017 26.642 55.5469 26.7756 55.1236 27.0426C54.7003 27.3097 54.3636 27.7031 54.1136 28.223C53.8636 28.7429 53.7386 29.3807 53.7386 30.1364C53.7386 30.892 53.8651 31.5298 54.1179 32.0497C54.3707 32.5696 54.7131 32.9631 55.1449 33.2301C55.5767 33.4972 56.0625 33.6307 56.6023 33.6307C57.1023 33.6307 57.5426 33.5241 57.9233 33.3111C58.3068 33.0952 58.6051 32.7912 58.8182 32.3991C59.0341 32.0043 59.142 31.5398 59.142 31.0057L59.4659 31.0739H56.8409V30.1364H60.1648V31.0739C60.1648 31.7926 60.0114 32.4176 59.7045 32.9489C59.4006 33.4801 58.9801 33.892 58.4432 34.1847C57.9091 34.4744 57.2955 34.6193 56.6023 34.6193C55.8295 34.6193 55.1506 34.4375 54.5653 34.0739C53.983 33.7102 53.5284 33.1932 53.2017 32.5227C52.8778 31.8523 52.7159 31.0568 52.7159 30.1364C52.7159 29.446 52.8082 28.8253 52.9929 28.2741C53.1804 27.7202 53.4446 27.2486 53.7855 26.8594C54.1264 26.4702 54.5298 26.1719 54.9957 25.9645C55.4616 25.7571 55.9744 25.6534 56.5341 25.6534C56.9943 25.6534 57.4233 25.723 57.821 25.8622C58.2216 25.9986 58.5781 26.1932 58.8906 26.446C59.206 26.696 59.4688 26.9957 59.679 27.3452C59.8892 27.6918 60.0341 28.0767 60.1136 28.5H59.0227ZM64.5827 34.6364C63.9521 34.6364 63.408 34.4972 62.9506 34.2188C62.4961 33.9375 62.1452 33.5455 61.8981 33.0426C61.6538 32.5369 61.5316 31.9489 61.5316 31.2784C61.5316 30.608 61.6538 30.017 61.8981 29.5057C62.1452 28.9915 62.489 28.5909 62.9293 28.304C63.3725 28.0142 63.8896 27.8693 64.4805 27.8693C64.8214 27.8693 65.158 27.9261 65.4904 28.0398C65.8228 28.1534 66.1254 28.3381 66.3981 28.5938C66.6708 28.8466 66.8881 29.1818 67.0501 29.5994C67.212 30.017 67.293 30.5312 67.293 31.142V31.5682L62.2475 31.5682V30.6989L66.2702 30.6989C66.2702 30.3295 66.1964 30 66.0487 29.7102C65.9038 29.4205 65.6964 29.1918 65.4265 29.0241C65.1594 28.8565 64.8441 28.7727 64.4805 28.7727C64.0799 28.7727 63.7333 28.8722 63.4407 29.071C63.1509 29.267 62.9279 29.5227 62.7717 29.8381C62.6154 30.1534 62.5373 30.4915 62.5373 30.8523V31.4318C62.5373 31.9261 62.6225 32.3452 62.793 32.6889C62.9663 33.0298 63.2063 33.2898 63.5131 33.4688C63.82 33.6449 64.1765 33.733 64.5827 33.733C64.8469 33.733 65.0856 33.696 65.2987 33.6222C65.5146 33.5455 65.7006 33.4318 65.8569 33.2812C66.0131 33.1278 66.1339 32.9375 66.2191 32.7102L67.1907 32.983C67.0884 33.3125 66.9165 33.6023 66.6751 33.8523C66.4336 34.0994 66.1353 34.2926 65.7802 34.4318C65.4251 34.5682 65.0259 34.6364 64.5827 34.6364ZM71.6694 27.9545V28.8068H68.2773V27.9545H71.6694ZM69.266 26.3864H70.2717V32.625C70.2717 32.9091 70.3129 33.1222 70.3952 33.2642C70.4805 33.4034 70.5884 33.4972 70.7191 33.5455C70.8526 33.5909 70.9933 33.6136 71.141 33.6136C71.2518 33.6136 71.3427 33.608 71.4137 33.5966C71.4847 33.5824 71.5415 33.571 71.5842 33.5625L71.7887 34.4659C71.7205 34.4915 71.6254 34.517 71.5032 34.5426C71.381 34.571 71.2262 34.5852 71.0387 34.5852C70.7546 34.5852 70.4762 34.5241 70.2035 34.402C69.9336 34.2798 69.7092 34.0938 69.5302 33.8438C69.354 33.5938 69.266 33.2784 69.266 32.8977V26.3864ZM83.7163 28.5H82.6594C82.5969 28.196 82.4876 27.929 82.3313 27.6989C82.1779 27.4688 81.9904 27.2756 81.7688 27.1193C81.5501 26.9602 81.3072 26.8409 81.0401 26.7614C80.7731 26.6818 80.4947 26.642 80.2049 26.642C79.6765 26.642 79.1978 26.7756 78.7688 27.0426C78.3427 27.3097 78.0032 27.7031 77.7504 28.223C77.5004 28.7429 77.3754 29.3807 77.3754 30.1364C77.3754 30.892 77.5004 31.5298 77.7504 32.0497C78.0032 32.5696 78.3427 32.9631 78.7688 33.2301C79.1978 33.4972 79.6765 33.6307 80.2049 33.6307C80.4947 33.6307 80.7731 33.5909 81.0401 33.5114C81.3072 33.4318 81.5501 33.3139 81.7688 33.1577C81.9904 32.9986 82.1779 32.804 82.3313 32.5739C82.4876 32.3409 82.5969 32.0739 82.6594 31.7727H83.7163C83.6367 32.2187 83.4918 32.6179 83.2816 32.9702C83.0714 33.3224 82.81 33.6222 82.4975 33.8693C82.185 34.1136 81.8342 34.2997 81.445 34.4276C81.0586 34.5554 80.6452 34.6193 80.2049 34.6193C79.4606 34.6193 78.7987 34.4375 78.2191 34.0739C77.6396 33.7102 77.1836 33.1932 76.8512 32.5227C76.5188 31.8523 76.3526 31.0568 76.3526 30.1364C76.3526 29.2159 76.5188 28.4205 76.8512 27.75C77.1836 27.0795 77.6396 26.5625 78.2191 26.1989C78.7987 25.8352 79.4606 25.6534 80.2049 25.6534C80.6452 25.6534 81.0586 25.7173 81.445 25.8452C81.8342 25.973 82.185 26.1605 82.4975 26.4077C82.81 26.652 83.0714 26.9503 83.2816 27.3026C83.4918 27.652 83.6367 28.0511 83.7163 28.5ZM87.9467 34.6364C87.3558 34.6364 86.8374 34.4957 86.3913 34.2145C85.9482 33.9332 85.6016 33.5398 85.3516 33.0341C85.1044 32.5284 84.9808 31.9375 84.9808 31.2614C84.9808 30.5795 85.1044 29.9844 85.3516 29.4759C85.6016 28.9673 85.9482 28.5724 86.3913 28.2912C86.8374 28.0099 87.3558 27.8693 87.9467 27.8693C88.5376 27.8693 89.0547 28.0099 89.4979 28.2912C89.9439 28.5724 90.2905 28.9673 90.5376 29.4759C90.7876 29.9844 90.9126 30.5795 90.9126 31.2614C90.9126 31.9375 90.7876 32.5284 90.5376 33.0341C90.2905 33.5398 89.9439 33.9332 89.4979 34.2145C89.0547 34.4957 88.5376 34.6364 87.9467 34.6364ZM87.9467 33.733C88.3956 33.733 88.7649 33.6179 89.0547 33.3878C89.3445 33.1577 89.5589 32.8551 89.6982 32.4801C89.8374 32.1051 89.907 31.6989 89.907 31.2614C89.907 30.8239 89.8374 30.4162 89.6982 30.0384C89.5589 29.6605 89.3445 29.3551 89.0547 29.1222C88.7649 28.8892 88.3956 28.7727 87.9467 28.7727C87.4979 28.7727 87.1286 28.8892 86.8388 29.1222C86.549 29.3551 86.3345 29.6605 86.1953 30.0384C86.0561 30.4162 85.9865 30.8239 85.9865 31.2614C85.9865 31.6989 86.0561 32.1051 86.1953 32.4801C86.3345 32.8551 86.549 33.1577 86.8388 33.3878C87.1286 33.6179 87.4979 33.733 87.9467 33.733ZM93.4535 30.5625V34.5H92.4478V27.9545H93.4194V28.9773H93.5046C93.658 28.6449 93.891 28.3778 94.2035 28.1761C94.516 27.9716 94.9194 27.8693 95.4137 27.8693C95.8569 27.8693 96.2447 27.9602 96.5771 28.142C96.9094 28.321 97.168 28.5938 97.3526 28.9602C97.5373 29.3239 97.6296 29.7841 97.6296 30.3409V34.5H96.6239V30.4091C96.6239 29.8949 96.4904 29.4943 96.2234 29.2074C95.9563 28.9176 95.5898 28.7727 95.1239 28.7727C94.8029 28.7727 94.516 28.8423 94.2631 28.9815C94.0131 29.1207 93.8157 29.3239 93.6708 29.5909C93.5259 29.858 93.4535 30.1818 93.4535 30.5625ZM102.314 27.9545V28.8068L98.9219 28.8068V27.9545L102.314 27.9545ZM99.9105 26.3864H100.916V32.625C100.916 32.9091 100.957 33.1222 101.04 33.2642C101.125 33.4034 101.233 33.4972 101.364 33.5455C101.497 33.5909 101.638 33.6136 101.786 33.6136C101.896 33.6136 101.987 33.608 102.058 33.5966C102.129 33.5824 102.186 33.571 102.229 33.5625L102.433 34.4659C102.365 34.4915 102.27 34.517 102.148 34.5426C102.026 34.571 101.871 34.5852 101.683 34.5852C101.399 34.5852 101.121 34.5241 100.848 34.402C100.578 34.2798 100.354 34.0938 100.175 33.8438C99.9986 33.5938 99.9105 33.2784 99.9105 32.8977V26.3864ZM105.753 34.6534C105.338 34.6534 104.962 34.5753 104.624 34.419C104.286 34.2599 104.017 34.0313 103.818 33.733C103.619 33.4318 103.52 33.0682 103.52 32.642C103.52 32.267 103.594 31.9631 103.741 31.7301C103.889 31.4943 104.087 31.3097 104.334 31.1761C104.581 31.0426 104.854 30.9432 105.152 30.8778C105.453 30.8097 105.756 30.7557 106.06 30.7159C106.457 30.6648 106.78 30.6264 107.027 30.6009C107.277 30.5724 107.459 30.5256 107.572 30.4602C107.689 30.3949 107.747 30.2812 107.747 30.1193V30.0852C107.747 29.6648 107.632 29.3381 107.402 29.1051C107.175 28.8722 106.83 28.7557 106.366 28.7557C105.886 28.7557 105.51 28.8608 105.237 29.071C104.964 29.2812 104.773 29.5057 104.662 29.7443L103.707 29.4034C103.878 29.0057 104.105 28.696 104.389 28.4744C104.676 28.25 104.989 28.0937 105.327 28.0057C105.668 27.9148 106.003 27.8693 106.332 27.8693C106.543 27.8693 106.784 27.8949 107.057 27.946C107.332 27.9943 107.598 28.0952 107.854 28.2486C108.112 28.402 108.327 28.6335 108.497 28.9432C108.668 29.2528 108.753 29.6676 108.753 30.1875V34.5H107.747V33.6136H107.696C107.628 33.7557 107.514 33.9077 107.355 34.0696C107.196 34.2315 106.984 34.3693 106.72 34.483C106.456 34.5966 106.134 34.6534 105.753 34.6534ZM105.906 33.75C106.304 33.75 106.639 33.6719 106.912 33.5156C107.188 33.3594 107.395 33.1577 107.534 32.9105C107.676 32.6634 107.747 32.4034 107.747 32.1307V31.2102C107.705 31.2614 107.611 31.3082 107.466 31.3509C107.324 31.3906 107.159 31.4261 106.972 31.4574C106.787 31.4858 106.607 31.5114 106.43 31.5341C106.257 31.554 106.116 31.571 106.009 31.5852C105.747 31.6193 105.503 31.6747 105.276 31.7514C105.051 31.8253 104.869 31.9375 104.73 32.0881C104.594 32.2358 104.526 32.4375 104.526 32.6932C104.526 33.0426 104.655 33.3068 104.913 33.4858C105.175 33.6619 105.506 33.75 105.906 33.75ZM113.248 34.6364C112.634 34.6364 112.105 34.4915 111.662 34.2017C111.219 33.9119 110.878 33.5128 110.64 33.0043C110.401 32.4957 110.282 31.9148 110.282 31.2614C110.282 30.5966 110.404 30.0099 110.648 29.5014C110.895 28.9901 111.239 28.5909 111.679 28.304C112.123 28.0142 112.64 27.8693 113.23 27.8693C113.691 27.8693 114.105 27.9545 114.475 28.125C114.844 28.2955 115.147 28.5341 115.382 28.8409C115.618 29.1477 115.765 29.5057 115.821 29.9148H114.816C114.739 29.6165 114.569 29.3523 114.304 29.1222C114.043 28.8892 113.691 28.7727 113.248 28.7727C112.855 28.7727 112.512 28.875 112.216 29.0795C111.924 29.2812 111.695 29.5668 111.53 29.9361C111.368 30.3026 111.287 30.733 111.287 31.2273C111.287 31.733 111.367 32.1733 111.526 32.5483C111.688 32.9233 111.915 33.2145 112.208 33.4219C112.503 33.6293 112.85 33.733 113.248 33.733C113.509 33.733 113.746 33.6875 113.959 33.5966C114.172 33.5057 114.353 33.375 114.5 33.2045C114.648 33.0341 114.753 32.8295 114.816 32.5909H115.821C115.765 32.9773 115.624 33.3253 115.4 33.6349C115.178 33.9418 114.884 34.1861 114.517 34.3679C114.154 34.5469 113.73 34.6364 113.248 34.6364ZM120.138 27.9545V28.8068L116.746 28.8068V27.9545L120.138 27.9545ZM117.735 26.3864L118.74 26.3864V32.625C118.74 32.9091 118.782 33.1222 118.864 33.2642C118.949 33.4034 119.057 33.4972 119.188 33.5455C119.321 33.5909 119.462 33.6136 119.61 33.6136C119.721 33.6136 119.811 33.608 119.882 33.5966C119.953 33.5824 120.01 33.571 120.053 33.5625L120.257 34.4659C120.189 34.4915 120.094 34.517 119.972 34.5426C119.85 34.571 119.695 34.5852 119.507 34.5852C119.223 34.5852 118.945 34.5241 118.672 34.402C118.402 34.2798 118.178 34.0938 117.999 33.8438C117.823 33.5938 117.735 33.2784 117.735 32.8977V26.3864Z" fill="#D4D4D8"/>
<rect x="0.5" y="113.5" width="126" height="47" rx="15.5" fill="#18181B"/>
<rect x="0.5" y="113.5" width="126" height="47" rx="15.5" stroke="#27272A"/>
<rect x="4" y="117" width="40" height="40" rx="12" fill="#DF99FF"/>
<path d="M31.5002 137L17.9152 130.362C17.8376 130.332 17.753 130.326 17.672 130.344C17.591 130.363 17.5173 130.405 17.4602 130.465C17.4014 130.527 17.361 130.604 17.3434 130.688C17.3257 130.771 17.3315 130.858 17.3602 130.938L19.4169 137M31.5002 137L17.9152 143.638C17.8376 143.668 17.753 143.674 17.672 143.656C17.591 143.637 17.5173 143.595 17.4602 143.535C17.4014 143.473 17.361 143.396 17.3434 143.312C17.3257 143.229 17.3315 143.142 17.3602 143.062L19.4169 137M31.5002 137H19.4169" stroke="white" stroke-width="1.5" stroke-linecap="round" stroke-linejoin="round"/>
<path d="M54.2479 133.5L52.1953 126.227H53.6122L54.9226 131.572H54.9901L56.3892 126.227H57.6783L59.081 131.575H59.1449L60.4553 126.227H61.8722L59.8196 133.5H58.5199L57.0639 128.397H57.0071L55.5476 133.5H54.2479ZM62.3871 133.5V128.045H63.6335V128.955H63.6903C63.7898 128.64 63.9602 128.397 64.2017 128.227C64.4455 128.054 64.7237 127.967 65.0362 127.967C65.1072 127.967 65.1866 127.971 65.2741 127.978C65.3641 127.983 65.4387 127.991 65.4979 128.003V129.185C65.4434 129.166 65.357 129.15 65.2386 129.136C65.1226 129.119 65.0102 129.111 64.9013 129.111C64.6669 129.111 64.4562 129.162 64.2692 129.263C64.0845 129.363 63.9389 129.501 63.8324 129.679C63.7259 129.857 63.6726 130.061 63.6726 130.293V133.5H62.3871ZM66.3519 133.5V128.045H67.6374V133.5H66.3519ZM66.9982 127.271C66.7946 127.271 66.6194 127.204 66.4727 127.069C66.3259 126.932 66.2525 126.767 66.2525 126.575C66.2525 126.381 66.3259 126.217 66.4727 126.082C66.6194 125.944 66.7946 125.876 66.9982 125.876C67.2042 125.876 67.3794 125.944 67.5238 126.082C67.6706 126.217 67.744 126.381 67.744 126.575C67.744 126.767 67.6706 126.932 67.5238 127.069C67.3794 127.204 67.2042 127.271 66.9982 127.271ZM71.6831 128.045V129.04H68.5474V128.045H71.6831ZM69.3216 126.739H70.6071V131.859C70.6071 132.032 70.6331 132.165 70.6852 132.257C70.7396 132.347 70.8107 132.409 70.8983 132.442C70.9859 132.475 71.0829 132.491 71.1895 132.491C71.2699 132.491 71.3433 132.486 71.4096 132.474C71.4783 132.462 71.5304 132.451 71.5659 132.442L71.7825 133.447C71.7138 133.47 71.6156 133.496 71.4877 133.525C71.3623 133.553 71.2084 133.57 71.0261 133.575C70.7041 133.584 70.4141 133.536 70.1561 133.429C69.898 133.32 69.6932 133.152 69.5417 132.925C69.3926 132.697 69.3192 132.413 69.3216 132.072V126.739ZM75.1143 133.607C74.5675 133.607 74.0952 133.493 73.6974 133.266C73.3021 133.036 72.9979 132.712 72.7848 132.293C72.5717 131.871 72.4652 131.375 72.4652 130.805C72.4652 130.244 72.5717 129.751 72.7848 129.327C73.0002 128.901 73.3009 128.57 73.6868 128.333C74.0727 128.094 74.526 127.974 75.0469 127.974C75.383 127.974 75.7003 128.029 75.9986 128.138C76.2992 128.244 76.5644 128.41 76.794 128.635C77.026 128.86 77.2083 129.146 77.3409 129.494C77.4735 129.84 77.5398 130.252 77.5398 130.73V131.124H73.0689V130.258H76.3075C76.3052 130.012 76.2519 129.793 76.1477 129.601C76.0436 129.407 75.898 129.254 75.7109 129.143C75.5263 129.031 75.3108 128.976 75.0646 128.976C74.8018 128.976 74.571 129.04 74.3722 129.168C74.1733 129.293 74.0182 129.459 73.907 129.665C73.7981 129.868 73.7424 130.092 73.7401 130.336V131.092C73.7401 131.41 73.7981 131.682 73.9141 131.909C74.0301 132.134 74.1922 132.307 74.4006 132.428C74.6089 132.546 74.8527 132.605 75.1321 132.605C75.3191 132.605 75.4884 132.579 75.6399 132.527C75.7914 132.473 75.9228 132.393 76.0341 132.289C76.1454 132.185 76.2294 132.056 76.2862 131.902L77.4865 132.037C77.4107 132.354 77.2663 132.631 77.0533 132.868C76.8426 133.102 76.5727 133.285 76.2436 133.415C75.9145 133.543 75.5381 133.607 75.1143 133.607ZM81.1646 126.227L82.7768 126.227L84.9359 131.497H85.0211L87.1802 126.227H88.7924V133.5H87.5282V128.504H87.4608L85.4508 133.479H84.5062L82.4963 128.493H82.4288V133.5H81.1646V126.227ZM91.7399 133.61C91.3942 133.61 91.0829 133.549 90.8059 133.425C90.5313 133.3 90.3135 133.115 90.1525 132.871C89.9939 132.628 89.9146 132.327 89.9146 131.969C89.9146 131.662 89.9714 131.407 90.085 131.206C90.1987 131.005 90.3538 130.844 90.5502 130.723C90.7467 130.602 90.9681 130.511 91.2143 130.45C91.4629 130.386 91.7198 130.339 91.9849 130.311C92.3045 130.278 92.5637 130.248 92.7626 130.222C92.9615 130.194 93.1059 130.151 93.1958 130.094C93.2882 130.035 93.3343 129.944 93.3343 129.821V129.8C93.3343 129.532 93.255 129.325 93.0964 129.178C92.9378 129.031 92.7093 128.958 92.411 128.958C92.0962 128.958 91.8464 129.027 91.6618 129.164C91.4795 129.301 91.3564 129.464 91.2924 129.651L90.0922 129.48C90.1868 129.149 90.3431 128.872 90.5609 128.649C90.7787 128.424 91.045 128.256 91.3599 128.145C91.6748 128.031 92.0228 127.974 92.4039 127.974C92.6667 127.974 92.9283 128.005 93.1887 128.067C93.4492 128.128 93.6871 128.23 93.9025 128.372C94.118 128.512 94.2908 128.702 94.421 128.944C94.5536 129.185 94.6199 129.487 94.6199 129.849V133.5H93.3841V132.751H93.3414C93.2633 132.902 93.1532 133.044 93.0112 133.177C92.8715 133.307 92.6951 133.412 92.4821 133.493C92.2714 133.571 92.024 133.61 91.7399 133.61ZM92.0737 132.665C92.3317 132.665 92.5555 132.615 92.7449 132.513C92.9342 132.409 93.0798 132.271 93.1816 132.101C93.2858 131.93 93.3379 131.745 93.3379 131.543V130.901C93.2976 130.934 93.229 130.964 93.1319 130.993C93.0372 131.021 92.9307 131.046 92.8123 131.067C92.694 131.089 92.5768 131.108 92.4608 131.124C92.3448 131.141 92.2441 131.155 92.1589 131.167C91.9672 131.193 91.7955 131.236 91.644 131.295C91.4925 131.354 91.3729 131.437 91.2853 131.543C91.1977 131.647 91.1539 131.782 91.1539 131.948C91.1539 132.185 91.2404 132.364 91.4132 132.484C91.586 132.605 91.8062 132.665 92.0737 132.665ZM95.9125 133.5V128.045H97.198V133.5H95.9125ZM96.5588 127.271C96.3552 127.271 96.18 127.204 96.0332 127.069C95.8864 126.932 95.813 126.767 95.813 126.575C95.813 126.381 95.8864 126.217 96.0332 126.082C96.18 125.944 96.3552 125.876 96.5588 125.876C96.7647 125.876 96.9399 125.944 97.0843 126.082C97.2311 126.217 97.3045 126.381 97.3045 126.575C97.3045 126.767 97.2311 126.932 97.0843 127.069C96.9399 127.204 96.7647 127.271 96.5588 127.271ZM99.8054 126.227V133.5H98.5199V126.227H99.8054Z" fill="#DF99FF"/>
<path d="M57.8295 140.955C57.7784 140.523 57.571 140.188 57.2074 139.949C56.8438 139.71 56.3977 139.591 55.8693 139.591C55.483 139.591 55.1449 139.653 54.8551 139.778C54.5682 139.903 54.3438 140.075 54.1818 140.294C54.0227 140.513 53.9432 140.761 53.9432 141.04C53.9432 141.273 53.9986 141.473 54.1094 141.641C54.223 141.805 54.3679 141.943 54.544 142.054C54.7202 142.162 54.9048 142.251 55.098 142.322C55.2912 142.391 55.4688 142.446 55.6307 142.489L56.517 142.727C56.7443 142.787 56.9972 142.869 57.2756 142.974C57.5568 143.08 57.8253 143.223 58.081 143.405C58.3395 143.584 58.5526 143.814 58.7202 144.095C58.8878 144.376 58.9716 144.722 58.9716 145.131C58.9716 145.602 58.848 146.028 58.6009 146.409C58.3565 146.79 57.9986 147.092 57.527 147.317C57.0582 147.541 56.4886 147.653 55.8182 147.653C55.1932 147.653 54.652 147.553 54.1946 147.351C53.7401 147.149 53.3821 146.868 53.1207 146.507C52.8622 146.146 52.7159 145.727 52.6818 145.25H53.7727C53.8011 145.58 53.9119 145.852 54.1051 146.068C54.3011 146.281 54.5483 146.44 54.8466 146.545C55.1477 146.648 55.4716 146.699 55.8182 146.699C56.2216 146.699 56.5838 146.634 56.9048 146.503C57.2259 146.369 57.4801 146.185 57.6676 145.949C57.8551 145.71 57.9489 145.432 57.9489 145.114C57.9489 144.824 57.8679 144.588 57.706 144.406C57.544 144.224 57.331 144.077 57.0668 143.963C56.8026 143.849 56.517 143.75 56.2102 143.665L55.1364 143.358C54.4545 143.162 53.9148 142.882 53.517 142.518C53.1193 142.155 52.9205 141.679 52.9205 141.091C52.9205 140.602 53.0526 140.176 53.3168 139.812C53.5838 139.446 53.9418 139.162 54.3906 138.96C54.8423 138.756 55.3466 138.653 55.9034 138.653C56.4659 138.653 56.9659 138.754 57.4034 138.956C57.8409 139.155 58.1875 139.428 58.4432 139.774C58.7017 140.121 58.8381 140.514 58.8523 140.955H57.8295ZM63.3171 147.636C62.6864 147.636 62.1424 147.497 61.685 147.219C61.2305 146.938 60.8796 146.545 60.6325 146.043C60.3881 145.537 60.266 144.949 60.266 144.278C60.266 143.608 60.3881 143.017 60.6325 142.506C60.8796 141.991 61.2234 141.591 61.6637 141.304C62.1069 141.014 62.6239 140.869 63.2148 140.869C63.5558 140.869 63.8924 140.926 64.2248 141.04C64.5572 141.153 64.8597 141.338 65.1325 141.594C65.4052 141.847 65.6225 142.182 65.7844 142.599C65.9464 143.017 66.0273 143.531 66.0273 144.142V144.568H60.9819V143.699H65.0046C65.0046 143.33 64.9308 143 64.783 142.71C64.6381 142.42 64.4308 142.192 64.1609 142.024C63.8938 141.857 63.5785 141.773 63.2148 141.773C62.8143 141.773 62.4677 141.872 62.1751 142.071C61.8853 142.267 61.6623 142.523 61.506 142.838C61.3498 143.153 61.2717 143.491 61.2717 143.852V144.432C61.2717 144.926 61.3569 145.345 61.5273 145.689C61.7006 146.03 61.9407 146.29 62.2475 146.469C62.5543 146.645 62.9109 146.733 63.3171 146.733C63.5813 146.733 63.82 146.696 64.033 146.622C64.2489 146.545 64.435 146.432 64.5913 146.281C64.7475 146.128 64.8683 145.937 64.9535 145.71L65.9251 145.983C65.8228 146.312 65.6509 146.602 65.4094 146.852C65.168 147.099 64.8697 147.293 64.5146 147.432C64.1594 147.568 63.7603 147.636 63.3171 147.636ZM68.5629 143.562V147.5H67.5572V140.955H68.5288V141.977H68.614C68.7674 141.645 69.0004 141.378 69.3129 141.176C69.6254 140.972 70.0288 140.869 70.5231 140.869C70.9663 140.869 71.354 140.96 71.6864 141.142C72.0188 141.321 72.2773 141.594 72.462 141.96C72.6467 142.324 72.739 142.784 72.739 143.341V147.5H71.7333V143.409C71.7333 142.895 71.5998 142.494 71.3327 142.207C71.0657 141.918 70.6992 141.773 70.2333 141.773C69.9123 141.773 69.6254 141.842 69.3725 141.982C69.1225 142.121 68.9251 142.324 68.7802 142.591C68.6353 142.858 68.5629 143.182 68.5629 143.562ZM77.0483 147.636C76.5028 147.636 76.0213 147.499 75.6037 147.223C75.1861 146.945 74.8594 146.553 74.6236 146.047C74.3878 145.538 74.2699 144.938 74.2699 144.244C74.2699 143.557 74.3878 142.96 74.6236 142.455C74.8594 141.949 75.1875 141.558 75.608 141.283C76.0284 141.007 76.5142 140.869 77.0653 140.869C77.4915 140.869 77.8281 140.94 78.0753 141.082C78.3253 141.222 78.5156 141.381 78.6463 141.56C78.7798 141.736 78.8835 141.881 78.9574 141.994H79.0426V138.773H80.0483V147.5H79.0767V146.494H78.9574C78.8835 146.614 78.7784 146.764 78.642 146.946C78.5057 147.125 78.3111 147.286 78.0582 147.428C77.8054 147.567 77.4688 147.636 77.0483 147.636ZM77.1847 146.733C77.5881 146.733 77.929 146.628 78.2074 146.418C78.4858 146.205 78.6974 145.911 78.8423 145.536C78.9872 145.158 79.0597 144.722 79.0597 144.227C79.0597 143.739 78.9886 143.311 78.8466 142.945C78.7045 142.575 78.4943 142.288 78.2159 142.084C77.9375 141.876 77.5938 141.773 77.1847 141.773C76.7585 141.773 76.4034 141.882 76.1193 142.101C75.8381 142.317 75.6264 142.611 75.4844 142.983C75.3452 143.352 75.2756 143.767 75.2756 144.227C75.2756 144.693 75.3466 145.116 75.4886 145.497C75.6335 145.875 75.8466 146.176 76.1278 146.401C76.4119 146.622 76.7642 146.733 77.1847 146.733ZM88.1491 147.636C87.5185 147.636 86.9744 147.497 86.517 147.219C86.0625 146.938 85.7116 146.545 85.4645 146.043C85.2202 145.537 85.098 144.949 85.098 144.278C85.098 143.608 85.2202 143.017 85.4645 142.506C85.7116 141.991 86.0554 141.591 86.4957 141.304C86.9389 141.014 87.456 140.869 88.0469 140.869C88.3878 140.869 88.7244 140.926 89.0568 141.04C89.3892 141.153 89.6918 141.338 89.9645 141.594C90.2372 141.847 90.4545 142.182 90.6165 142.599C90.7784 143.017 90.8594 143.531 90.8594 144.142V144.568H85.8139V143.699H89.8366C89.8366 143.33 89.7628 143 89.6151 142.71C89.4702 142.42 89.2628 142.192 88.9929 142.024C88.7259 141.857 88.4105 141.773 88.0469 141.773C87.6463 141.773 87.2997 141.872 87.0071 142.071C86.7173 142.267 86.4943 142.523 86.3381 142.838C86.1818 143.153 86.1037 143.491 86.1037 143.852V144.432C86.1037 144.926 86.1889 145.345 86.3594 145.689C86.5327 146.03 86.7727 146.29 87.0795 146.469C87.3864 146.645 87.7429 146.733 88.1491 146.733C88.4134 146.733 88.652 146.696 88.8651 146.622C89.081 146.545 89.267 146.432 89.4233 146.281C89.5795 146.128 89.7003 145.937 89.7855 145.71L90.7571 145.983C90.6548 146.312 90.483 146.602 90.2415 146.852C90 147.099 89.7017 147.293 89.3466 147.432C88.9915 147.568 88.5923 147.636 88.1491 147.636ZM92.3892 147.5V140.955H93.3608V141.977H93.446C93.5824 141.628 93.8026 141.357 94.1065 141.163C94.4105 140.967 94.7756 140.869 95.2017 140.869C95.6335 140.869 95.9929 140.967 96.2798 141.163C96.5696 141.357 96.7955 141.628 96.9574 141.977H97.0256C97.1932 141.639 97.4446 141.371 97.7798 141.172C98.1151 140.97 98.517 140.869 98.9858 140.869C99.571 140.869 100.05 141.053 100.422 141.419C100.794 141.783 100.98 142.349 100.98 143.119V147.5H99.9744V143.119C99.9744 142.636 99.8423 142.291 99.5781 142.084C99.3139 141.876 99.0028 141.773 98.6449 141.773C98.1847 141.773 97.8281 141.912 97.5753 142.19C97.3224 142.466 97.196 142.815 97.196 143.239V147.5H96.1733V143.017C96.1733 142.645 96.0526 142.345 95.8111 142.118C95.5696 141.888 95.2585 141.773 94.8778 141.773C94.6165 141.773 94.3722 141.842 94.1449 141.982C93.9205 142.121 93.7386 142.314 93.5994 142.561C93.4631 142.805 93.3949 143.088 93.3949 143.409V147.5H92.3892ZM104.745 147.653C104.33 147.653 103.954 147.575 103.616 147.419C103.278 147.26 103.009 147.031 102.81 146.733C102.612 146.432 102.512 146.068 102.512 145.642C102.512 145.267 102.586 144.963 102.734 144.73C102.881 144.494 103.079 144.31 103.326 144.176C103.573 144.043 103.846 143.943 104.144 143.878C104.445 143.81 104.748 143.756 105.052 143.716C105.45 143.665 105.772 143.626 106.019 143.601C106.269 143.572 106.451 143.526 106.565 143.46C106.681 143.395 106.739 143.281 106.739 143.119V143.085C106.739 142.665 106.624 142.338 106.394 142.105C106.167 141.872 105.822 141.756 105.359 141.756C104.879 141.756 104.502 141.861 104.229 142.071C103.957 142.281 103.765 142.506 103.654 142.744L102.7 142.403C102.87 142.006 103.097 141.696 103.381 141.474C103.668 141.25 103.981 141.094 104.319 141.006C104.66 140.915 104.995 140.869 105.325 140.869C105.535 140.869 105.776 140.895 106.049 140.946C106.325 140.994 106.59 141.095 106.846 141.249C107.104 141.402 107.319 141.634 107.489 141.943C107.66 142.253 107.745 142.668 107.745 143.188V147.5H106.739V146.614H106.688C106.62 146.756 106.506 146.908 106.347 147.07C106.188 147.232 105.977 147.369 105.712 147.483C105.448 147.597 105.126 147.653 104.745 147.653ZM104.898 146.75C105.296 146.75 105.631 146.672 105.904 146.516C106.18 146.359 106.387 146.158 106.526 145.911C106.668 145.663 106.739 145.403 106.739 145.131V144.21C106.697 144.261 106.603 144.308 106.458 144.351C106.316 144.391 106.151 144.426 105.964 144.457C105.779 144.486 105.599 144.511 105.423 144.534C105.249 144.554 105.109 144.571 105.001 144.585C104.739 144.619 104.495 144.675 104.268 144.751C104.043 144.825 103.862 144.937 103.722 145.088C103.586 145.236 103.518 145.437 103.518 145.693C103.518 146.043 103.647 146.307 103.906 146.486C104.167 146.662 104.498 146.75 104.898 146.75ZM109.581 147.5V140.955H110.586V147.5H109.581ZM110.092 139.864C109.896 139.864 109.727 139.797 109.585 139.663C109.446 139.53 109.376 139.369 109.376 139.182C109.376 138.994 109.446 138.834 109.585 138.7C109.727 138.567 109.896 138.5 110.092 138.5C110.288 138.5 110.456 138.567 110.595 138.7C110.737 138.834 110.808 138.994 110.808 139.182C110.808 139.369 110.737 139.53 110.595 139.663C110.456 139.797 110.288 139.864 110.092 139.864ZM113.434 138.773V147.5H112.428V138.773H113.434Z" fill="#555555"/>
<path fill-rule="evenodd" clip-rule="evenodd" d="M25.598 115.155L27.1962 117H22L23.598 115.155V48H25.598V115.155Z" fill="url(#paint0_linear_11_78)"/>
<defs>
<linearGradient id="paint0_linear_11_78" x1="24.5981" y1="48" x2="24.5981" y2="117" gradientUnits="userSpaceOnUse">
<stop stop-color="#4FBEFF"/>
<stop offset="1" stop-color="#DF99FF"/>
</linearGradient>
<clipPath id="clip0_11_78">
<rect width="24" height="24" fill="white" transform="translate(12 12)"/>
</clipPath>
</defs>
</svg>
