<svg width="32" height="32" viewBox="0 0 32 32" fill="none" xmlns="http://www.w3.org/2000/svg">
<g clip-path="url(#clip0_14_951)">
<path d="M21 1V3" stroke="#FAFAFA" stroke-width="2" stroke-linecap="round" stroke-linejoin="round"/>
<path d="M26 2.62744L25 4.26619" stroke="#FAFAFA" stroke-width="2" stroke-linecap="round" stroke-linejoin="round"/>
<path d="M29.4575 7L27.5775 7.60625" stroke="#FAFAFA" stroke-width="2" stroke-linecap="round" stroke-linejoin="round"/>
<path d="M10.4425 12.3751L9.72627 11.1251C9.4279 10.6082 8.93644 10.2311 8.36 10.0766C7.78356 9.9221 7.16936 10.0029 6.65252 10.3013C6.13568 10.5997 5.75853 11.0911 5.60405 11.6676C5.44956 12.244 5.5304 12.8582 5.82877 13.3751L8.20377 17.4888" stroke="#FAFAFA" stroke-width="2" stroke-linecap="round" stroke-linejoin="round"/>
<path d="M13.6937 18L10.4437 12.375C10.2896 12.1189 10.1879 11.8347 10.1448 11.5389C10.1017 11.2431 10.118 10.9416 10.1927 10.6522C10.2674 10.3627 10.3991 10.0911 10.5799 9.85309C10.7608 9.61509 10.9873 9.41552 11.2462 9.26603C11.505 9.11654 11.7911 9.02013 12.0876 8.98244C12.3842 8.94474 12.6852 8.96652 12.9733 9.04649C13.2613 9.12646 13.5305 9.26302 13.7652 9.4482C13.9998 9.63338 14.1952 9.86347 14.34 10.125L18.8962 18" stroke="#FAFAFA" stroke-width="2" stroke-linecap="round" stroke-linejoin="round"/>
<path d="M12.75 7.37504L12.035 6.12504C11.8872 5.86913 11.6905 5.64482 11.4561 5.46493C11.2217 5.28503 10.9541 5.15307 10.6687 5.07658C10.3833 5.00008 10.0856 4.98056 9.79262 5.01912C9.49965 5.05767 9.21714 5.15356 8.96123 5.30129C8.70531 5.44903 8.481 5.64573 8.30111 5.88015C8.12121 6.11458 7.98925 6.38214 7.91276 6.66757C7.83626 6.95299 7.81674 7.25069 7.8553 7.54365C7.89386 7.83662 7.98974 8.11913 8.13748 8.37504L9.72623 11.125" stroke="#FAFAFA" stroke-width="2" stroke-linecap="round" stroke-linejoin="round"/>
<path d="M14.3388 10.125L12.75 7.37501C12.5958 7.11892 12.4942 6.83467 12.4511 6.53886C12.408 6.24306 12.4243 5.94163 12.499 5.65219C12.5737 5.36275 12.7053 5.09109 12.8862 4.85309C13.0671 4.61509 13.2936 4.41552 13.5524 4.26603C13.8113 4.11654 14.0973 4.02013 14.3939 3.98244C14.6904 3.94474 14.9915 3.96652 15.2795 4.04649C15.5676 4.12646 15.8368 4.26302 16.0714 4.4482C16.3061 4.63338 16.5015 4.86347 16.6463 5.12501L21.2713 13.125" stroke="#FAFAFA" stroke-width="2" stroke-linecap="round" stroke-linejoin="round"/>
<path d="M24.875 23.4701C26.2403 22.0646 27.1097 20.252 27.3511 18.3076C27.5925 16.3631 27.1927 14.3929 26.2125 12.6963L23.5762 8.12505C23.4285 7.86914 23.2318 7.64483 22.9974 7.46493C22.763 7.28504 22.4954 7.15307 22.21 7.07658C21.6335 6.9221 21.0193 7.00293 20.5025 7.3013C19.9857 7.59967 19.6085 8.09113 19.454 8.66757C19.2995 9.24401 19.3804 9.85821 19.6787 10.3751" stroke="#FAFAFA" stroke-width="2" stroke-linecap="round" stroke-linejoin="round"/>
<path d="M10.2263 21L7.6988 16.625C7.40043 16.1082 6.90897 15.7311 6.33253 15.5766C5.75609 15.4221 5.14189 15.5029 4.62505 15.8013C4.10821 16.0997 3.73106 16.5911 3.57658 17.1676C3.4221 17.744 3.50293 18.3582 3.8013 18.875L5.00005 20.9488L8.2038 26.5C9.39727 28.5672 11.3631 30.0757 13.6687 30.6935C15.9743 31.3113 18.431 30.9879 20.4982 29.7944C22.5654 28.6009 24.0738 26.6352 24.6916 24.3295C25.3094 22.0239 24.986 19.5672 23.7926 17.5L21.2676 13.125C21.1269 12.8562 20.9333 12.6185 20.6984 12.4264C20.4635 12.2342 20.1922 12.0916 19.9008 12.0071C19.6093 11.9225 19.3038 11.8978 19.0025 11.9344C18.7013 11.971 18.4106 12.0681 18.1479 12.22C17.8851 12.3719 17.6559 12.5753 17.4738 12.8181C17.2917 13.0608 17.1607 13.3379 17.0885 13.6327C17.0163 13.9274 17.0044 14.2337 17.0537 14.5331C17.1029 14.8326 17.2123 15.1189 17.3751 15.375" stroke="#FAFAFA" stroke-width="2" stroke-linecap="round" stroke-linejoin="round"/>
</g>
<defs>
<clipPath id="clip0_14_951">
<rect width="32" height="32" fill="white"/>
</clipPath>
</defs>
</svg>
