<svg width="32" height="32" viewBox="0 0 32 32" fill="none" xmlns="http://www.w3.org/2000/svg">
<g clip-path="url(#clip0_14_980)">
<path d="M11 29H21" stroke="#FAFAFA" stroke-width="2" stroke-linecap="round" stroke-linejoin="round"/>
<path d="M9.83747 20.875C8.64869 19.9463 7.6858 18.7604 7.02115 17.4062C6.3565 16.052 6.00736 14.5648 5.99997 13.0563C5.96997 7.63625 10.34 3.125 15.7587 3C17.8587 2.94914 19.9214 3.56088 21.6542 4.74843C23.3869 5.93598 24.7017 7.63903 25.4119 9.61594C26.1222 11.5929 26.1918 13.7432 25.611 15.762C25.0302 17.7807 23.8285 19.5653 22.1762 20.8625C21.8118 21.1451 21.5165 21.5069 21.3127 21.9206C21.1089 22.3342 21.0019 22.7889 21 23.25V24C21 24.2652 20.8946 24.5196 20.7071 24.7071C20.5195 24.8946 20.2652 25 20 25H12C11.7348 25 11.4804 24.8946 11.2929 24.7071C11.1053 24.5196 11 24.2652 11 24V23.25C10.9995 22.7918 10.8945 22.3397 10.6931 21.9282C10.4917 21.5167 10.199 21.1565 9.83747 20.875Z" stroke="#FAFAFA" stroke-width="2" stroke-linecap="round" stroke-linejoin="round"/>
<path d="M17 7C19.5 7.42125 21.5762 9.5 22 12" stroke="#FAFAFA" stroke-width="2" stroke-linecap="round" stroke-linejoin="round"/>
</g>
<defs>
<clipPath id="clip0_14_980">
<rect width="32" height="32" fill="white"/>
</clipPath>
</defs>
</svg>
